<svg xmlns="http://www.w3.org/2000/svg" viewBox="0 0 256 256">
  <rect width="256" height="256" rx="24" fill="#ed1c24"/>
  <path fill="#ffffff" d="M198.7 166.5c-9.4-9.2-29.2-13.1-58.8-11.6-12.3-12.4-22.6-27.3-30.1-43.4 8.7-27.6 8.1-47.4-1.8-58.9-4.1-4.8-9.3-7.2-15.5-7.2-6.4 0-11.5 2.7-14.5 7.6-7.7 12.4-1.5 39.1 10.5 65.2-8.4 23.5-20.1 49.7-32.8 73.4-24.6 10.7-38.1 22.4-40.1 34.9-.9 5.7 1 11 5.4 15 3.4 3.1 7.5 4.7 12.1 4.7 14.6 0 31.1-17.9 49.2-53.3 18.1-6.7 38.4-11.5 57.4-13.5 17.6 16.3 34.9 25.3 48.8 25.3 8 0 14.2-3.1 17.4-8.7 5.4-9.5 2.9-19.6-7.2-29.5zM93.5 62.7c.8 0 1.7.5 2.6 1.5 3.1 3.6 4.3 13.7.5 29.7-6.2-17.7-7.1-28.2-4.8-31 .4-.2.9-.2 1.7-.2zM33.1 229.2c-.5 0-.8-.1-1.2-.5-.8-.7-.9-1.1-.8-1.7.6-3.7 5.9-9.6 16.1-15.8-7.7 11.8-12.4 18-14.1 18zm60.3-56.9c5.4-11.9 10.5-24.2 14.9-36.3 5.5 10.1 12 19.6 19.1 28.2-11.4 1.9-23 4.6-34 8.1zm96.4 14.8c-4.9 1.9-15-2-26.4-10.2 13.8.7 23 2.9 27.3 7.1 1.6 1.6 1.4 2.2-.9 3.1z"/>
</svg>
